<?xml version="1.0" encoding="UTF-8" standalone="no"?>
<!-- Created with Inkscape (http://www.inkscape.org/) -->

<svg
   width="210mm"
   height="297mm"
   viewBox="0 0 210 297"
   version="1.1"
   id="svg5"
   xml:space="preserve"
   inkscape:version="1.2 (dc2aeda, 2022-05-15)"
   sodipodi:docname="globnuz.svg"
   xmlns:inkscape="http://www.inkscape.org/namespaces/inkscape"
   xmlns:sodipodi="http://sodipodi.sourceforge.net/DTD/sodipodi-0.dtd"
   xmlns="http://www.w3.org/2000/svg"
   xmlns:svg="http://www.w3.org/2000/svg"><sodipodi:namedview
     id="namedview7"
     pagecolor="#ffffff"
     bordercolor="#000000"
     borderopacity="0.25"
     inkscape:showpageshadow="2"
     inkscape:pageopacity="0.0"
     inkscape:pagecheckerboard="0"
     inkscape:deskcolor="#d1d1d1"
     inkscape:document-units="mm"
     showgrid="false"
     inkscape:zoom="0.86910675"
     inkscape:cx="294.5553"
     inkscape:cy="80.542465"
     inkscape:window-width="1920"
     inkscape:window-height="1080"
     inkscape:window-x="0"
     inkscape:window-y="0"
     inkscape:window-maximized="0"
     inkscape:current-layer="layer1" /><defs
     id="defs2"><rect
       x="264.57688"
       y="231.99352"
       width="276.30689"
       height="84.716735"
       id="rect993" /><rect
       x="197.68463"
       y="306.04996"
       width="1041.6207"
       height="133.97895"
       id="rect763" /></defs><g
     inkscape:label="Calque 1"
     inkscape:groupmode="layer"
     id="layer1"><rect
       style="fill:#000000;stroke:none;stroke-width:0.2"
       id="rect3250"
       width="226.21541"
       height="124.1426"
       x="-155.76646"
       y="-112.78239"
       ry="7.3715954" /><path
       style="fill:#ffffff;stroke-width:0.264583"
       d="m 93.45813,175.64945 c -6.86417,-0.61964 -13.01229,-4.79698 -16.23744,-11.03252 -1.57971,-3.05423 -2.16555,-5.25372 -2.33595,-8.77025 -0.23523,-4.85428 0.72335,-8.52186 3.24616,-12.41994 2.6931,-4.16123 6.46864,-6.99335 11.49078,-8.61952 1.99499,-0.64598 2.66726,-0.73064 5.95312,-0.74961 4.38849,-0.0254 6.70751,0.50981 9.99301,2.30608 6.91206,3.77903 11.02129,10.67345 11.03678,18.51743 0.0246,12.43514 -10.53197,21.90707 -23.14646,20.76833 z m 6.48239,-1.66336 c 3.5702,-0.75101 7.2193,-2.83458 9.7989,-5.59501 2.13682,-2.28659 2.28147,-2.62973 0.38748,-0.91916 -5.65076,5.10351 -13.32905,6.94901 -20.41533,4.90688 -3.1823,-0.91708 -6.87109,-3.18403 -9.15187,-5.62432 -0.69123,-0.73956 -1.25677,-1.24058 -1.25677,-1.11337 0,0.12721 0.8987,1.18663 1.99712,2.35425 3.97358,4.22394 8.6895,6.34177 14.19131,6.37306 1.40932,0.008 3.41144,-0.16404 4.44916,-0.38233 z m -0.26467,-2.55917 c 4.49125,-0.83289 9.29471,-3.9723 11.93144,-7.79805 l 0.75593,-1.09683 -0.55032,-0.69962 -0.55032,-0.69962 -1.2293,1.14597 c -2.484,2.31563 -5.86233,4.17643 -9.29909,5.122 -2.3827,0.65556 -7.93156,0.65724 -10.30346,0.003 -3.48651,-0.96151 -6.47639,-2.63466 -8.9089,-4.98547 l -1.35298,-1.30752 -0.55943,0.7112 c -0.64671,0.82217 -0.58924,0.99027 0.99833,2.91996 4.54057,5.51907 11.74151,8.04358 19.0681,6.68487 z m -0.51312,-5.0922 c 3.58773,-0.64008 6.87184,-2.26798 9.69146,-4.80395 l 1.53729,-1.38265 -0.77711,-0.82007 c -0.4274,-0.45104 -0.88183,-0.82007 -1.00984,-0.82007 -0.128,0 -0.6128,0.2899 -1.07733,0.64421 -0.46453,0.35431 -1.73651,1.06679 -2.82662,1.58329 -6.69913,3.17408 -14.90151,2.60212 -20.79068,-1.44973 l -1.22467,-0.8426 -0.82027,0.82026 -0.82026,0.82027 0.78276,0.82658 c 1.18859,1.25513 3.84075,3.07412 5.73351,3.93234 3.79529,1.72087 7.58652,2.20846 11.60176,1.49212 z m 2.35649,-5.70659 c 1.78774,-0.60913 4.102,-1.72768 5.40057,-2.61023 l 0.76164,-0.51765 -1.4231,-0.94361 -1.4231,-0.94361 -2.24896,0.77313 c -3.05598,1.05055 -6.33957,1.43276 -9.25916,1.07778 -2.39892,-0.29168 -4.65675,-0.87045 -5.90488,-1.51364 -0.68851,-0.35481 -0.83111,-0.33261 -1.90455,0.29647 -1.3779,0.8075 -1.59984,1.10312 -1.19472,1.59127 0.52709,0.63509 4.55871,2.49111 6.62182,3.04845 2.73011,0.73752 8.0318,0.60799 10.57444,-0.25836 z m -22.69287,-0.14554 c 0.24909,-0.54669 0.22829,-0.74879 -0.11213,-1.0892 -0.38091,-0.38091 -0.44252,-0.3721 -0.6948,0.0993 -0.29991,0.56039 -0.12649,1.66115 0.2617,1.66115 0.13167,0 0.37703,-0.30206 0.54523,-0.67123 z m 34.86837,-0.50382 c -0.002,-0.15409 -0.11699,-0.45875 -0.25502,-0.67704 -0.21995,-0.34783 -0.30698,-0.34087 -0.70433,0.0564 -0.38898,0.38888 -0.40582,0.55759 -0.11859,1.18798 0.32281,0.7085 0.3481,0.71649 0.70838,0.22378 0.20548,-0.28102 0.37179,-0.63701 0.36956,-0.7911 z m -32.80429,-1.86766 0.6214,-0.66146 -0.6214,-0.66146 c -0.34178,-0.3638 -0.70603,-0.66145 -0.80944,-0.66145 -0.10342,0 -0.38307,0.29765 -0.62144,0.66145 -0.40149,0.61274 -0.40149,0.71018 0,1.32292 0.23837,0.3638 0.51802,0.66146 0.62144,0.66146 0.10341,0 0.46766,-0.29766 0.80944,-0.66146 z m 31.03475,-0.008 c 0.45745,-0.6285 0.45745,-0.67778 0,-1.30629 -0.59379,-0.81585 -0.6425,-0.81614 -1.40141,-0.008 l -0.62141,0.66146 0.62141,0.66146 c 0.75891,0.80782 0.80762,0.80753 1.40141,-0.008 z m 2.6236,-1.14512 c -0.10912,-0.29052 -0.17848,-0.28217 -0.36069,0.0434 -0.12407,0.2217 -0.14504,0.61298 -0.0466,0.86951 0.16616,0.43299 0.192,0.42988 0.36068,-0.0434 0.0999,-0.28041 0.12091,-0.67169 0.0466,-0.86952 z m -37.26782,0.0926 c -0.17956,-0.46792 -0.19483,-0.46702 -0.37244,0.0219 -0.22168,0.61022 -0.0252,1.05089 0.31628,0.70941 0.13386,-0.13387 0.15914,-0.46296 0.0562,-0.73132 z m 6.70074,-1.41892 1.10691,-0.75039 -1.2061,-0.85014 -1.20609,-0.85014 -0.76071,0.7288 c -0.41838,0.40085 -0.7607,0.80936 -0.7607,0.90781 0,0.22622 1.33934,1.57573 1.55743,1.56926 0.0893,-0.003 0.66047,-0.34249 1.26926,-0.7552 z m 15.92071,0.18759 c 0.77945,-0.14878 1.79148,-0.4288 2.24896,-0.62225 l 0.83177,-0.35173 -0.79375,-0.30402 c -2.19073,-0.83907 -4.2685,-1.11306 -7.40834,-0.97694 -2.96347,0.12848 -6.21771,0.77845 -6.21771,1.24187 0,0.28707 3.01556,1.07925 5.00541,1.31491 1.90184,0.22523 4.12832,0.11913 6.33366,-0.30184 z m 9.70097,-0.22723 0.76612,-0.79965 -0.805,-0.805 -0.80501,-0.805 -1.22616,0.74476 c -0.67439,0.40961 -1.225,0.80429 -1.22359,0.87705 0.003,0.14741 2.14407,1.57054 2.37859,1.58091 0.0819,0.004 0.49369,-0.35326 0.91505,-0.79307 z M 78.77376,155.3333 c 0.25719,-0.48057 -0.0195,-1.5875 -0.39688,-1.5875 -0.29777,0 -0.67214,1.137 -0.52599,1.59749 0.21107,0.66503 0.56365,0.66122 0.92287,-0.01 z m 34.92501,-0.52917 c 0,-0.0899 -0.16813,-0.39337 -0.37361,-0.67439 -0.36078,-0.49339 -0.38484,-0.4863 -0.70036,0.20618 -0.26432,0.58011 -0.25879,0.79901 0.029,1.14573 0.32644,0.39333 0.38407,0.38982 0.70036,-0.0427 0.18956,-0.25924 0.34465,-0.54489 0.34465,-0.63478 z m -24.7193,-1.57938 c 4.23585,-1.49507 9.26174,-1.49038 13.65795,0.0128 l 2.30011,0.78644 1.36881,-0.84223 1.3688,-0.84224 -0.6262,-0.4919 c -1.0782,-0.84695 -4.78921,-2.57627 -6.44705,-3.00431 -5.16942,-1.33469 -10.93758,-0.44982 -15.30167,2.34738 l -1.54334,0.98921 0.61729,0.47981 c 0.54963,0.42721 2.06364,1.31241 2.29212,1.34013 0.048,0.006 1.08896,-0.34294 2.31318,-0.77504 z m -8.00517,-0.22216 0.71204,-0.74322 -0.79207,-0.75885 c -0.43564,-0.41737 -0.8328,-0.708 -0.88257,-0.64585 -0.88859,1.10961 -0.95436,1.38643 -0.50869,2.1409 0.24375,0.41262 0.51429,0.75023 0.60121,0.75023 0.0869,0 0.47846,-0.33445 0.87008,-0.74321 z m 31.12883,-1.09189 c -0.71234,-1.23495 -0.72013,-1.23706 -1.56792,-0.42482 l -0.80735,0.77349 0.72749,0.75935 0.7275,0.75935 0.5795,-0.72676 c 0.4063,-0.50955 0.50815,-0.85045 0.34078,-1.14061 z m -34.80333,-0.0473 c -0.2505,-0.40532 -0.63966,0.25959 -0.44652,0.76291 0.12406,0.32327 0.18494,0.31631 0.38672,-0.0443 0.13172,-0.23536 0.15863,-0.55876 0.0598,-0.71867 z m 37.18467,0.36107 c -0.007,-0.62414 -0.0465,-0.66147 -0.2789,-0.26249 -0.14897,0.25581 -0.19785,0.58324 -0.10863,0.7276 0.27357,0.44264 0.39595,0.29576 0.38753,-0.46511 z m -29.62529,-2.36254 c 1.3358,-0.89995 4.81159,-2.18579 7.0834,-2.62046 5.24498,-1.00353 10.8567,0.12118 15.27208,3.06086 l 1.58567,1.05571 0.76706,-0.76706 0.76706,-0.76706 -0.54011,-0.68663 c -1.69249,-2.15165 -6.2549,-4.78064 -9.72161,-5.60188 -2.41241,-0.57148 -6.5885,-0.57075 -8.99585,0.002 -2.75349,0.65462 -5.79997,2.24532 -8.16019,4.26081 l -2.07478,1.77174 0.86779,0.89533 c 0.9674,0.9981 0.69588,1.05008 3.14948,-0.60293 z m -5.83767,-0.21715 c 0,-0.14552 -0.17105,-0.49057 -0.38012,-0.76677 -0.36473,-0.48185 -0.39116,-0.47312 -0.65308,0.21576 -0.19039,0.50078 -0.18656,0.87938 0.0126,1.25164 0.27514,0.51411 0.2991,0.5159 0.65308,0.0488 0.2021,-0.26668 0.36746,-0.60393 0.36746,-0.74945 z m 34.41926,0.51184 c 0.1743,-0.45844 0.16467,-0.85331 -0.0297,-1.21646 -0.28676,-0.53581 -0.28917,-0.53567 -0.69314,0.0411 -0.31741,0.45316 -0.34233,0.71716 -0.11483,1.21647 0.36856,0.8089 0.51726,0.80161 0.83765,-0.0411 z m -32.40141,-2.52314 c 2.01488,-2.12786 5.44266,-4.08769 9.03013,-5.16296 2.90127,-0.8696 7.56808,-0.99363 10.48453,-0.27865 3.35556,0.82263 6.61247,2.57918 9.35637,5.04619 l 1.36204,1.22459 0.54691,-0.69528 0.54691,-0.69529 -0.85509,-1.19487 c -2.4404,-3.41012 -7.0196,-6.38834 -11.55425,-7.51467 -4.48637,-1.11433 -9.95896,-0.30213 -14.02305,2.0812 -1.98504,1.1641 -4.63995,3.55341 -5.98614,5.38728 -0.93579,1.2748 -0.94002,1.29256 -0.46387,1.94652 0.2643,0.36299 0.54756,0.66373 0.62947,0.6683 0.0819,0.005 0.49863,-0.36099 0.92604,-0.81236 z m 30.83669,-3.90059 c -5.7269,-8.04269 -16.40917,-10.74464 -25.03042,-6.33114 -2.65895,1.36119 -4.4175,2.82408 -6.75462,5.61892 -0.36069,0.43133 0.0423,0.15987 0.89555,-0.60323 2.06664,-1.84832 3.48925,-2.80416 5.7924,-3.89185 3.20455,-1.5134 4.86803,-1.8462 9.19273,-1.83908 3.66441,0.006 3.95371,0.0466 6.45117,0.90492 3.16445,1.08755 6.05456,2.90928 8.2332,5.18967 1.79151,1.87518 1.98498,2.02611 1.21999,0.95179 z"
       id="path304"
       sodipodi:nodetypes="ssssssscsssssssssscscccsscscssccsscssssscccssssscccssssssssssssssssssssscsssssscsscsccssscsssssssscccsscssscsssssscccscssssssscsscsccsscccssscscsscssssssscccsssssssccsccsscccsscscsccssssssssssssssssscccssssscsssssscsss"
       inkscape:export-filename="echosphere.png"
       inkscape:export-xdpi="96"
       inkscape:export-ydpi="96" /><path
       style="fill:#000000;stroke-width:0.264583"
       d="m 55.835666,208.23772 v -44.31771 h 69.585414 69.58542 v 44.31771 44.31771 H 125.42108 55.835666 Z m 27.516668,39.93647 c 0,-0.20969 -0.119063,-0.38126 -0.264583,-0.38126 -0.145521,0 -0.264584,0.24515 -0.264584,0.54478 0,0.29963 0.119063,0.4712 0.264584,0.38126 0.14552,-0.0899 0.264583,-0.33509 0.264583,-0.54478 z m 1.514753,0.14791 c 0.02193,-0.29105 -0.0718,-0.52917 -0.20828,-0.52917 -0.284663,0 -0.334997,0.6187 -0.07175,0.88194 0.239525,0.23953 0.234982,0.24526 0.28003,-0.35277 z m 1.852083,0 c 0.02193,-0.29105 -0.0718,-0.52917 -0.20828,-0.52917 -0.136477,0 -0.248139,0.23812 -0.248139,0.52917 0,0.29104 0.09373,0.52916 0.20828,0.52916 0.114551,0 0.226216,-0.23812 0.248139,-0.52916 z m 6.879167,0 c 0.02193,-0.29105 -0.0718,-0.52917 -0.20828,-0.52917 -0.136477,0 -0.248139,0.23812 -0.248139,0.52917 0,0.29104 0.09373,0.52916 0.20828,0.52916 0.114551,0 0.226216,-0.23812 0.248139,-0.52916 z m 6.158164,0.0757 c 0,-0.0728 -0.178593,-0.0638 -0.396875,0.02 -0.218281,0.0838 -0.396875,0.0469 -0.396875,-0.0819 0,-0.12883 0.148829,-0.29429 0.33073,-0.36769 0.197575,-0.0797 0.144314,-0.14186 -0.132292,-0.15433 -0.443492,-0.02 -0.635863,0.51182 -0.304861,0.84282 0.170061,0.17006 0.900173,-0.0399 0.900173,-0.25887 z m 3.251669,-0.0757 c -0.0761,-0.29105 -0.18403,-0.52917 -0.23982,-0.52917 -0.0558,0 -0.10143,0.23812 -0.10143,0.52917 0,0.29104 0.10791,0.52916 0.23981,0.52916 0.1319,0 0.17755,-0.23812 0.10144,-0.52916 z m 1.93297,0.2237 c 0.11697,-0.18926 0.0726,-0.23364 -0.11667,-0.11668 -0.16801,0.10384 -0.30547,0.0726 -0.30547,-0.0694 0,-0.14198 0.14883,-0.3182 0.33073,-0.3916 0.19758,-0.0797 0.14432,-0.14186 -0.13229,-0.15434 -0.2936,-0.0133 -0.46302,0.17274 -0.46302,0.50828 0,0.57991 0.38838,0.70643 0.68672,0.2237 z m 4.45437,0.0113 c -0.1,-0.1618 -0.0177,-0.3981 0.18282,-0.52512 0.28838,-0.18266 0.26781,-0.2318 -0.0984,-0.235 -0.28799,-0.003 -0.46302,0.19599 -0.46302,0.52511 0,0.29104 0.12609,0.52917 0.28019,0.52917 0.15411,0 0.19839,-0.13237 0.0984,-0.29416 z m 5.70682,-0.10271 c -0.26381,-0.31787 -0.26148,-0.39688 0.0117,-0.39688 0.18759,0 0.26962,-0.0714 0.18229,-0.15878 -0.0873,-0.0873 -0.28057,-0.0835 -0.42942,0.008 -0.32217,0.19912 -0.0885,0.94406 0.29613,0.94406 0.15486,0 0.12915,-0.16811 -0.0607,-0.39687 z m 7.40834,-0.0882 c 0,-0.26679 -0.1786,-0.48507 -0.39688,-0.48507 -0.21828,0 -0.39687,0.16578 -0.39687,0.3684 0,0.20261 0.11906,0.2948 0.26458,0.20487 0.14552,-0.0899 0.26458,-0.0374 0.26458,0.11667 0,0.15411 0.0595,0.2802 0.13229,0.2802 0.0728,0 0.1323,-0.21828 0.1323,-0.48507 z m 1.51475,-0.0441 c 0.0219,-0.29105 -0.0718,-0.52917 -0.20828,-0.52917 -0.13648,0 -0.24814,0.23812 -0.24814,0.52917 0,0.29104 0.0937,0.52916 0.20828,0.52916 0.11455,0 0.22622,-0.23812 0.24814,-0.52916 z m 6.87917,0 c 0.0219,-0.29105 -0.0718,-0.52917 -0.20828,-0.52917 -0.13648,0 -0.24814,0.23812 -0.24814,0.52917 0,0.29104 0.0937,0.52916 0.20828,0.52916 0.11455,0 0.22621,-0.23812 0.24814,-0.52916 z m 3.79965,0.0277 c 0.18702,0.29535 0.23455,0.27658 0.23779,-0.0939 0.002,-0.25466 -0.17454,-0.46302 -0.39282,-0.46302 -0.24428,0 -0.38508,0.22889 -0.36618,0.59531 0.026,0.50446 0.0503,0.51879 0.15908,0.0939 0.10317,-0.40289 0.17433,-0.42889 0.36213,-0.13229 z m 1.92177,-0.16851 c -0.082,-0.21362 -0.26994,-0.3884 -0.41771,-0.3884 -0.16892,0 -0.15927,0.13183 0.026,0.35507 0.16207,0.19529 0.20642,0.45251 0.0985,0.57159 -0.10788,0.11908 -0.0525,0.13408 0.12303,0.0333 0.17555,-0.10075 0.2521,-0.35797 0.17013,-0.57159 z m 4.93466,0.10837 c 0,-0.45187 -0.0725,-0.50139 -0.37115,-0.25354 -0.285,0.23653 -0.40297,0.2287 -0.50828,-0.0338 -0.0904,-0.22522 -0.14425,-0.19049 -0.15802,0.10185 -0.0115,0.24399 0.18747,0.49807 0.44213,0.56462 0.25467,0.0666 0.49279,0.13481 0.52917,0.15169 0.0364,0.0169 0.0662,-0.22201 0.0662,-0.53087 z m 2.11261,0.30643 c -0.002,-0.078 -0.12129,-0.32034 -0.26458,-0.53862 -0.23158,-0.35277 -0.28948,-0.35277 -0.52107,0 -0.37518,0.57153 -0.33351,0.68036 0.26054,0.68036 0.29104,0 0.52734,-0.0638 0.52511,-0.14174 z m 1.78339,-0.27403 c -0.0466,-0.61807 -0.721,-0.72721 -0.721,-0.11668 0,0.22687 0.11906,0.3389 0.26458,0.24897 0.14552,-0.0899 0.26458,-0.0374 0.26458,0.11667 0,0.15411 0.0521,0.2802 0.11585,0.2802 0.0637,0 0.0979,-0.23812 0.076,-0.52916 z m 1.5875,0 c 0.0219,-0.29105 -0.0718,-0.52917 -0.20828,-0.52917 -0.28466,0 -0.335,0.6187 -0.0718,0.88194 0.23953,0.23953 0.23498,0.24526 0.28003,-0.35277 z m 5.629,0.0441 c 0,-0.26679 -0.1786,-0.48507 -0.39688,-0.48507 -0.21828,0 -0.39687,0.16578 -0.39687,0.3684 0,0.20261 0.11906,0.2948 0.26458,0.20487 0.14552,-0.0899 0.26458,-0.0374 0.26458,0.11667 0,0.15411 0.0595,0.2802 0.1323,0.2802 0.0728,0 0.13229,-0.21828 0.13229,-0.48507 z m 5.02708,-0.20469 c 0,-0.20271 -0.11906,-0.36857 -0.26458,-0.36857 -0.14552,0 -0.26641,0.14883 -0.26864,0.33073 -0.003,0.22048 -0.0895,0.19844 -0.26053,-0.0661 -0.22475,-0.34777 -0.25698,-0.34504 -0.26053,0.022 -0.002,0.23041 0.0671,0.4901 0.15411,0.57708 0.25747,0.25748 0.90017,-0.096 0.90017,-0.49514 z m 5.40568,0.3956 c -0.1,-0.16179 -0.0177,-0.39809 0.18282,-0.52512 0.28838,-0.18265 0.2678,-0.2318 -0.0984,-0.235 -0.45592,-0.004 -0.63131,0.53322 -0.28664,0.87789 0.27811,0.27811 0.40221,0.20583 0.20221,-0.11777 z m -71.022346,-0.3673 c 0,-0.15591 -0.238125,-0.28348 -0.529166,-0.28348 -0.291042,0 -0.529167,0.12757 -0.529167,0.28348 0,0.15592 0.238125,0.28349 0.529167,0.28349 0.291041,0 0.529166,-0.12757 0.529166,-0.28349 z m 5.394476,-0.0186 c 0.06654,-0.17341 -0.11988,-0.29146 -0.434205,-0.27494 -0.302948,0.0159 -0.59809,0.17094 -0.65587,0.3445 -0.135649,0.40746 0.933196,0.33926 1.090075,-0.0696 z m 3.90563,0.0186 c 0,-0.13824 -0.12799,-0.29401 -0.28443,-0.34616 -0.15643,-0.0521 -0.28442,0.10363 -0.28442,0.34616 0,0.24254 0.12799,0.39831 0.28442,0.34617 0.15644,-0.0522 0.28443,-0.20792 0.28443,-0.34617 z m 10.22835,0.11245 c -0.0522,-0.15643 -0.20792,-0.28443 -0.34617,-0.28443 -0.13824,0 -0.29401,0.128 -0.34616,0.28443 -0.0522,0.15644 0.10363,0.28443 0.34616,0.28443 0.24254,0 0.39831,-0.12799 0.34617,-0.28443 z m 1.73389,-0.11245 c 0.0838,-0.21828 0.037,-0.39687 -0.10398,-0.39687 -0.14096,0 -0.25628,0.17859 -0.25628,0.39687 0,0.21829 0.0468,0.39688 0.10398,0.39688 0.0572,0 0.17252,-0.17859 0.25628,-0.39688 z m 4.13765,0 c 0,-0.16977 -0.17859,-0.30868 -0.39687,-0.30868 -0.21828,0 -0.39688,0.13891 -0.39688,0.30868 0,0.16978 0.1786,0.30869 0.39688,0.30869 0.21828,0 0.39687,-0.13891 0.39687,-0.30869 z m 2.91042,0 c 0,-0.21828 -0.11533,-0.39687 -0.25628,-0.39687 -0.14095,0 -0.18775,0.17859 -0.10399,0.39687 0.0838,0.21829 0.19909,0.39688 0.25629,0.39688 0.0572,0 0.10398,-0.17859 0.10398,-0.39688 z m 6.87917,0 c 0,-0.21828 -0.11533,-0.39687 -0.25628,-0.39687 -0.14096,0 -0.18775,0.17859 -0.10399,0.39687 0.0838,0.21829 0.19909,0.39688 0.25628,0.39688 0.0572,0 0.10399,-0.17859 0.10399,-0.39688 z m 1.89177,0 c 0,-0.13824 -0.12799,-0.29401 -0.28443,-0.34616 -0.15643,-0.0521 -0.28443,0.10363 -0.28443,0.34616 0,0.24254 0.128,0.39831 0.28443,0.34617 0.15644,-0.0522 0.28443,-0.20792 0.28443,-0.34617 z m 3.39989,-0.1479 c 0,-0.13694 -0.11906,-0.24897 -0.26458,-0.24897 -0.14552,0 -0.26458,0.18562 -0.26458,0.41249 0,0.22687 0.11906,0.3389 0.26458,0.24897 0.14552,-0.0899 0.26458,-0.27556 0.26458,-0.41249 z m 0.52917,0.1479 c 0,-0.21828 -0.0468,-0.39687 -0.10398,-0.39687 -0.0572,0 -0.17252,0.17859 -0.25628,0.39687 -0.0838,0.21829 -0.037,0.39688 0.10398,0.39688 0.14095,0 0.25628,-0.17859 0.25628,-0.39688 z m 17.55818,0 c -0.0838,-0.21828 -0.24588,-0.39687 -0.36026,-0.39687 -0.11438,0 -0.2765,0.17859 -0.36027,0.39687 -0.10307,0.26861 0.0134,0.39688 0.36027,0.39688 0.3469,0 0.46334,-0.12827 0.36026,-0.39688 z m 4.84756,-0.1819 c -0.0845,-0.21106 -0.14716,-0.14837 -0.15985,0.15986 -0.0115,0.27891 0.0511,0.43518 0.13896,0.34726 0.0879,-0.0879 0.0973,-0.31612 0.0209,-0.50712 z m 3.85149,0.22114 c 0.16719,0.10332 0.20566,0.0499 0.0941,-0.13065 -0.28533,-0.46167 -0.68946,-0.36604 -0.66584,0.15756 0.0126,0.27933 0.074,0.33116 0.15489,0.13064 0.0737,-0.18281 0.26129,-0.25371 0.41687,-0.15755 z m 2.00248,0.0732 c -0.0522,-0.15643 -0.20792,-0.28443 -0.34617,-0.28443 -0.13824,0 -0.29402,0.128 -0.34616,0.28443 -0.0522,0.15644 0.10363,0.28443 0.34616,0.28443 0.24254,0 0.39831,-0.12799 0.34617,-0.28443 z m 3.75487,-0.11245 c 0,-0.21828 -0.11532,-0.39687 -0.25628,-0.39687 -0.14095,0 -0.18774,0.17859 -0.10398,0.39687 0.0838,0.21829 0.19909,0.39688 0.25628,0.39688 0.0572,0 0.10398,-0.17859 0.10398,-0.39688 z m -37.57083,-5.97664 v -2.40477 l 0.84668,0.71243 c 0.76071,0.6401 1.01277,0.70185 2.48269,0.60826 2.96039,-0.1885 4.68372,-1.98027 4.68372,-4.8697 0,-2.99381 -1.98421,-5.1352 -4.75827,-5.1352 -0.97685,0 -1.58399,0.17312 -2.29186,0.65348 l -0.96296,0.65349 v -0.66946 c 0,-0.6118 -0.0854,-0.66238 -0.99219,-0.58734 l -0.99219,0.0821 -0.0707,6.68073 -0.0707,6.68073 h 1.06287 1.06288 z m 0.89958,-3.78648 c -0.79239,-0.79239 -0.89958,-1.06352 -0.89958,-2.27542 0,-1.21189 0.10719,-1.48302 0.89958,-2.27541 0.69441,-0.69441 1.11983,-0.89959 1.86523,-0.89959 2.55239,0 3.96268,2.18447 2.95983,4.58463 -0.47494,1.13669 -1.48324,1.76537 -2.83137,1.76537 -0.8915,0 -1.26069,-0.16658 -1.99369,-0.89958 z m -48.60252,2.34913 c 1.608237,-0.67196 1.770717,-0.90651 1.112993,-1.60662 -0.533,-0.56735 -0.611021,-0.57999 -1.199663,-0.1943 -0.886936,0.58115 -2.971682,0.56045 -3.987459,-0.0396 -0.68707,-0.40586 -1.404181,-1.36109 -1.404181,-1.87044 0,-0.0659 1.802121,-0.11985 4.004714,-0.11985 h 4.004714 l -0.16331,-1.19147 c -0.220857,-1.61133 -1.038832,-3.13298 -2.08544,-3.87948 -0.711173,-0.50724 -1.200261,-0.61759 -2.737292,-0.61759 -1.610283,0 -2.028874,0.10421 -2.999946,0.74683 -2.993641,1.9811 -2.740902,6.94887 0.438932,8.62753 1.221272,0.64472 3.651761,0.71497 5.015938,0.14498 z m -5.289569,-5.9506 c 0.23097,-0.88323 1.600889,-1.84895 2.622824,-1.84895 1.51844,0 3.009269,1.04001 3.009269,2.09928 0,0.18234 -1.019602,0.28197 -2.885647,0.28197 -2.761052,0 -2.879636,-0.023 -2.746446,-0.5323 z m 16.374558,5.81098 c 0.615974,-0.29819 1.312153,-0.8355 1.547061,-1.19402 0.411509,-0.62803 0.402016,-0.66139 -0.25989,-0.91304 -0.900597,-0.34241 -0.938067,-0.33654 -1.710886,0.26797 -1.386316,1.08439 -3.839689,0.4379 -4.625933,-1.21899 -0.527605,-1.11184 -0.506645,-1.57102 0.131922,-2.89012 0.845804,-1.7472 2.712781,-2.2311 4.471445,-1.15896 0.724776,0.44185 1.025686,0.49511 1.521354,0.26927 0.696646,-0.31742 0.742363,-0.50412 0.274056,-1.11928 -1.582341,-2.07851 -5.599468,-2.01351 -7.566499,0.12244 -1.449906,1.57441 -1.484487,4.7494 -0.07102,6.52014 1.486464,1.86218 4.050117,2.39812 6.288387,1.31459 z m 5.661702,-2.85399 0.132292,-3.26386 0.864071,-0.77104 c 1.027422,-0.9168 2.337419,-1.02318 3.273806,-0.26585 0.59232,0.47905 0.62912,0.69191 0.71154,4.11577 l 0.0869,3.61059 0.97142,-0.0809 0.97141,-0.0809 -0.01,-3.57187 c -0.008,-2.83709 -0.10185,-3.74396 -0.45773,-4.40841 -0.70245,-1.31149 -1.68423,-1.94159 -3.02525,-1.94159 -1.260624,0 -1.983334,0.2812 -2.923488,1.13752 l -0.595313,0.54222 v -2.55966 -2.55966 h -1.058333 -1.058333 v 6.76284 6.76285 l 0.992187,-0.0821 0.992188,-0.0821 z m 16.073509,2.83493 c 4.63384,-2.24321 2.81541,-9.51375 -2.37283,-9.48714 -3.1159,0.016 -5.64073,2.88251 -5.10069,5.79101 0.65834,3.54561 4.18326,5.28891 7.47352,3.69613 z m -3.9655,-1.70504 c -1.38489,-0.75144 -1.86508,-2.49228 -1.15575,-4.18996 1.25518,-3.00407 5.71649,-1.88874 5.71649,1.42913 0,1.01482 -0.60005,2.21557 -1.38028,2.76207 -0.73671,0.51601 -2.22823,0.51543 -3.18046,-10e-4 z m 13.55365,1.87089 c 1.47734,-0.76396 1.96717,-2.19244 1.2737,-3.71445 -0.32302,-0.70896 -1.4299,-1.39147 -3.16784,-1.95333 -1.19549,-0.38649 -1.63945,-0.88757 -1.41445,-1.59646 0.26239,-0.82673 1.3601,-0.98001 2.25898,-0.31544 0.54622,0.40384 0.97703,0.51567 1.54722,0.40163 0.6971,-0.13942 0.75956,-0.22531 0.5301,-0.72893 -0.68922,-1.51267 -3.29449,-2.23356 -4.9598,-1.37239 -1.06438,0.55041 -1.40957,1.07276 -1.40957,2.13302 0,1.44125 0.68254,2.20536 2.8538,3.19483 1.46475,0.66751 1.96162,1.02488 1.96162,1.41089 0,0.66615 -0.68562,1.3485 -1.35496,1.3485 -0.65818,0 -2.00377,-0.68346 -2.13791,-1.0859 -0.065,-0.19508 -0.3937,-0.239 -0.92132,-0.12312 -1.04156,0.22877 -0.927,0.87841 0.3531,2.00236 0.77123,0.67714 1.11949,0.79416 2.36364,0.79416 0.80253,0 1.80319,-0.17792 2.22369,-0.39537 z M 139.444,238.0033 c 0.0744,-1.71098 0.27794,-3.29733 0.46507,-3.62446 0.80192,-1.40188 2.64417,-1.83638 3.8051,-0.89744 0.59232,0.47905 0.62912,0.69191 0.71154,4.11577 l 0.0869,3.61059 0.97142,-0.0809 0.97141,-0.0809 0.0749,-2.98206 c 0.0891,-3.54807 -0.21921,-4.88812 -1.39503,-6.06393 -0.74114,-0.74115 -1.06576,-0.87588 -2.11035,-0.87588 -1.32022,0 -2.03625,0.27281 -2.98563,1.13752 l -0.59531,0.54222 v -2.55966 -2.55966 h -1.05833 -1.05834 v 6.76284 6.76285 l 0.99219,-0.0821 0.99219,-0.0821 z m 16.05573,2.892 c 0.40939,-0.15565 0.95477,-0.47343 1.21196,-0.70618 0.44562,-0.40329 0.44102,-0.45149 -0.0978,-1.02499 -0.53723,-0.57185 -0.59825,-0.58026 -1.22594,-0.16898 -1.54005,1.00907 -4.20523,0.32868 -5.0215,-1.28194 l -0.32231,-0.63596 3.96033,-0.073 3.96032,-0.073 -0.002,-0.72071 c -0.002,-1.21191 -0.51201,-2.64585 -1.25311,-3.5266 -2.4077,-2.86139 -7.53647,-1.56385 -8.53929,2.16038 -0.62969,2.33845 0.73837,5.17225 2.91471,6.03752 0.89255,0.35486 3.49529,0.36284 4.41406,0.0135 z m -5.20781,-5.95506 c 0,-0.22948 0.34803,-0.76526 0.7734,-1.19063 0.63432,-0.63432 0.99591,-0.7734 2.01083,-0.7734 1.0545,0 1.37042,0.13299 2.13702,0.89959 0.49477,0.49477 0.89958,1.03055 0.89958,1.19062 0,0.19403 -0.97014,0.29104 -2.91042,0.29104 -2.47374,0 -2.91041,-0.0626 -2.91041,-0.41722 z m 11.38289,3.79066 c 0.009,-3.70148 0.91615,-5.28961 3.23534,-5.6627 0.91882,-0.14782 0.99218,-0.22559 0.99218,-1.05185 0,-0.8182 -0.0669,-0.89222 -0.80688,-0.89222 -1.02907,0 -2.16876,0.58913 -2.87392,1.4856 l -0.55253,0.70243 v -1.10999 -1.10998 l -0.99219,0.0821 -0.99218,0.0821 -0.0726,4.62091 c -0.0399,2.5415 -0.0139,4.77393 0.0578,4.96094 0.0722,0.18816 0.5478,0.34003 1.06483,0.34003 h 0.93434 l 0.006,-2.4474 z m 13.03342,2.0915 c 0.46827,-0.19573 1.01425,-0.55225 1.21328,-0.79225 0.31358,-0.37811 0.27952,-0.50307 -0.25512,-0.93599 -0.56976,-0.46136 -0.6657,-0.46771 -1.25299,-0.0829 -1.51533,0.99288 -4.18764,0.29869 -4.99693,-1.29805 l -0.32233,-0.63596 3.82806,-0.0732 3.82805,-0.0732 v -1.40901 c 0,-2.38138 -1.57408,-4.10779 -3.95381,-4.33646 -2.59131,-0.24899 -4.93926,1.29614 -5.57882,3.67127 -0.58992,2.19081 0.7552,5.07034 2.78084,5.95296 1.04591,0.45573 3.63334,0.46278 4.70977,0.0128 z m -5.36631,-5.88216 c 0,-0.22948 0.34803,-0.76526 0.7734,-1.19063 0.63432,-0.63432 0.99591,-0.7734 2.01083,-0.7734 1.0545,0 1.37042,0.13299 2.13702,0.89959 0.49477,0.49477 0.89958,1.03055 0.89958,1.19062 0,0.19403 -0.97014,0.29104 -2.91041,0.29104 -2.47375,0 -2.91042,-0.0626 -2.91042,-0.41722 z m -38.77079,-14.15665 c 3.50382,-1.05932 6.37471,-2.77172 8.92873,-5.32573 5.83417,-5.83418 7.61042,-14.54279 4.57319,-22.42145 -2.29728,-5.95917 -7.5365,-10.72333 -13.74448,-12.49819 -1.79087,-0.512 -2.7182,-0.60538 -5.83353,-0.58739 -3.28586,0.019 -3.95813,0.10363 -5.95312,0.74961 -7.61467,2.46564 -12.91734,8.26986 -14.44554,15.81183 -0.58256,2.87507 -0.38556,7.50468 0.43141,10.1379 3.05442,9.84501 11.93218,15.82962 22.08392,14.88706 1.16416,-0.10808 2.94591,-0.44723 3.95942,-0.75364 z m -10.57401,-1.027 c -3.96063,-1.0489 -6.90688,-2.81722 -9.77683,-5.868 -1.09842,-1.16762 -1.99712,-2.22704 -1.99712,-2.35425 0,-0.12721 0.56554,0.37381 1.25677,1.11337 7.72871,8.26921 20.85304,8.58766 29.56719,0.71744 1.89399,-1.71057 1.74934,-1.36743 -0.38748,0.91916 -2.5796,2.76043 -6.2287,4.844 -9.7989,5.59501 -2.58323,0.5434 -6.55604,0.48839 -8.86363,-0.12273 z m 2.62042,-2.14189 c -4.95415,-0.49522 -9.94377,-3.15571 -13.08955,-6.97942 -1.58757,-1.9297 -1.64504,-2.0978 -0.99833,-2.91996 l 0.55943,-0.71121 1.35298,1.30753 c 2.43251,2.3508 5.42239,4.02395 8.9089,4.98547 2.3719,0.65413 7.92075,0.65245 10.30345,-0.003 3.43676,-0.94557 6.81509,-2.80638 9.29909,-5.122 l 1.2293,-1.14598 0.55032,0.69962 0.55032,0.69963 -0.75593,1.09682 c -3.87208,5.61818 -10.89926,8.7934 -17.90998,8.09261 z m -0.50375,-5.20046 c -4.00752,-0.55422 -8.83375,-2.93664 -11.36609,-5.61075 l -0.78276,-0.82658 0.82026,-0.82027 0.82027,-0.82026 1.22467,0.8426 c 5.88917,4.05185 14.09154,4.62381 20.79067,1.44973 1.09011,-0.5165 2.36209,-1.22898 2.82662,-1.58329 0.46453,-0.35431 0.94933,-0.64421 1.07733,-0.64421 0.12801,0 0.58244,0.36903 1.00984,0.82007 l 0.77711,0.82007 -1.53729,1.38265 c -4.30387,3.87092 -10.1906,5.74671 -15.66063,4.99024 z m -2.24877,-5.63452 c -2.06311,-0.55734 -6.09473,-2.41336 -6.62182,-3.04846 -0.40512,-0.48814 -0.18318,-0.78376 1.19472,-1.59126 1.07344,-0.62908 1.21604,-0.65128 1.90455,-0.29647 1.24813,0.64319 3.50596,1.22196 5.90488,1.51363 2.91958,0.35499 6.20317,-0.0272 9.25915,-1.07778 l 2.24896,-0.77312 1.4231,0.94361 1.4231,0.94361 -0.76164,0.51765 c -1.29857,0.88255 -3.61283,2.0011 -5.40057,2.61023 -2.54264,0.86635 -7.84432,0.99588 -10.57443,0.25836 z m -13.05262,-0.30461 c -0.0823,-0.31457 -0.025,-0.80471 0.12726,-1.08921 0.25228,-0.47138 0.31389,-0.48019 0.6948,-0.0993 0.34042,0.34041 0.36122,0.54251 0.11213,1.0892 -0.37456,0.82208 -0.73515,0.8604 -0.93419,0.0993 z m 34.72461,-0.0358 c -0.28723,-0.63039 -0.27039,-0.7991 0.11859,-1.18798 0.39735,-0.39725 0.48438,-0.40421 0.70433,-0.0564 0.3462,0.54747 0.32081,0.87276 -0.11454,1.46814 -0.36028,0.49271 -0.38557,0.48472 -0.70838,-0.22378 z m -33.15722,-2.43498 c -0.40149,-0.61274 -0.40149,-0.71018 0,-1.32292 0.23837,-0.3638 0.51802,-0.66146 0.62144,-0.66146 0.10341,0 0.46766,0.29766 0.80944,0.66146 l 0.6214,0.66146 -0.6214,0.66146 c -0.34178,0.3638 -0.70603,0.66146 -0.80944,0.66146 -0.10342,0 -0.38307,-0.29766 -0.62144,-0.66146 z m 31.06421,0 -0.62141,-0.66146 0.62141,-0.66146 c 0.75891,-0.80782 0.80762,-0.80753 1.40141,0.008 0.45745,0.62851 0.45745,0.67778 0,1.30629 -0.59379,0.81585 -0.6425,0.81613 -1.40141,0.008 z m 3.61772,-0.24052 c -0.0984,-0.25653 -0.0775,-0.64781 0.0466,-0.86951 0.31045,-0.55474 0.56634,0.11831 0.31408,0.8261 -0.16868,0.47329 -0.19452,0.4764 -0.36068,0.0434 z m -37.28912,-0.0671 c -0.071,-0.12182 -0.0457,-0.45091 0.0562,-0.73132 0.17761,-0.48892 0.19288,-0.48982 0.37244,-0.0219 0.18951,0.49386 -0.19056,1.16178 -0.4286,0.75322 z m 5.00019,-2.10966 c -0.38365,-0.38364 -0.69754,-0.77809 -0.69754,-0.87654 0,-0.0984 0.34232,-0.50696 0.7607,-0.9078 l 0.76071,-0.7288 1.20609,0.85013 1.2061,0.85014 -1.10691,0.75039 c -0.60879,0.41272 -1.17996,0.75256 -1.26926,0.75521 -0.0893,0.003 -0.47625,-0.30908 -0.85989,-0.69273 z m 11.7162,0.42695 c -1.98985,-0.23566 -5.00541,-1.02784 -5.00541,-1.31491 0,-0.46341 3.25424,-1.11338 6.21771,-1.24186 3.13983,-0.13613 5.2176,0.13787 7.40833,0.97694 l 0.79375,0.30401 -0.83177,0.35173 c -1.93313,0.81747 -5.88768,1.24326 -8.58261,0.92409 z m 13.8571,-0.4636 c -0.61245,-0.39656 -1.1147,-0.78055 -1.11612,-0.85331 -0.001,-0.0728 0.5492,-0.46743 1.22359,-0.87705 l 1.22616,-0.74476 0.80501,0.805 0.805,0.80501 -0.76612,0.79965 c -0.42136,0.43981 -0.83313,0.79669 -0.91505,0.79307 -0.0819,-0.004 -0.65003,-0.33105 -1.26247,-0.72761 z m -29.57496,-0.31409 c -0.14615,-0.46049 0.22822,-1.5975 0.52599,-1.5975 0.37734,0 0.65407,1.10694 0.39688,1.5875 -0.35922,0.67121 -0.71179,0.67503 -0.92287,0.01 z m 34.80286,0.13835 c -0.28775,-0.34671 -0.29328,-0.56561 -0.029,-1.14573 0.31552,-0.69248 0.33958,-0.69956 0.70036,-0.20617 0.45883,0.62749 0.46085,0.71853 0.029,1.30917 -0.31629,0.43255 -0.37392,0.43607 -0.70036,0.0427 z m -26.86853,-1.91731 c -0.43657,-0.23367 -1.07154,-0.64078 -1.41105,-0.90467 l -0.61729,-0.47982 1.54334,-0.98921 c 4.36409,-2.79719 10.13225,-3.68207 15.30166,-2.34737 1.65784,0.42804 5.36885,2.15736 6.44705,3.00431 l 0.6262,0.4919 -1.3688,0.84223 -1.36881,0.84224 -2.30011,-0.78644 c -4.39621,-1.50313 -9.42209,-1.50782 -13.65794,-0.0127 -1.22422,0.43209 -2.26515,0.78086 -2.31318,0.77503 -0.048,-0.006 -0.44451,-0.20178 -0.88107,-0.43545 z m -6.28221,-0.56877 c -0.44567,-0.75447 -0.3799,-1.03128 0.50869,-2.1409 0.0498,-0.0622 0.44693,0.22849 0.88257,0.64586 l 0.79207,0.75885 -0.71204,0.74321 c -0.39162,0.40877 -0.78316,0.74321 -0.87008,0.74321 -0.0869,0 -0.35746,-0.3376 -0.60121,-0.75023 z m 30.95233,0.0232 -0.72749,-0.75934 0.80735,-0.7735 c 0.67834,-0.64989 0.84905,-0.71081 1.06828,-0.38126 0.72476,1.08949 0.73568,1.22329 0.15886,1.94669 l -0.5795,0.72676 z m -33.60205,-0.39243 c -0.081,-0.21102 -0.0541,-0.53442 0.0598,-0.71867 0.30948,-0.50076 0.62283,0.14566 0.32691,0.67442 -0.20177,0.36056 -0.26266,0.36753 -0.38671,0.0443 z m 37.24364,0.0633 c -0.0892,-0.14437 -0.0403,-0.47179 0.10863,-0.7276 0.23235,-0.39898 0.272,-0.36166 0.2789,0.26248 0.008,0.76088 -0.11396,0.90776 -0.38753,0.46512 z m -32.38723,-2.22472 -0.86779,-0.89534 2.07478,-1.77173 c 2.36022,-2.01549 5.4067,-3.6062 8.16019,-4.26081 2.40735,-0.57232 6.58343,-0.57305 8.99584,-0.002 3.46671,0.82123 8.02912,3.45023 9.72161,5.60188 l 0.54011,0.68663 -0.76706,0.76706 -0.76706,0.76706 -1.58567,-1.05572 c -4.41538,-2.93967 -10.0271,-4.06438 -15.27207,-3.06085 -2.27181,0.43467 -5.7476,1.72051 -7.0834,2.62046 -2.4536,1.65301 -2.18208,1.60103 -3.14948,0.60293 z m -3.70872,-0.11945 c -0.19923,-0.37226 -0.20306,-0.75086 -0.0127,-1.25164 0.26191,-0.68889 0.28834,-0.69762 0.65308,-0.21576 0.4744,0.62674 0.47671,0.90389 0.0127,1.51622 -0.35398,0.46708 -0.37794,0.46529 -0.65308,-0.0488 z m 34.60213,-0.14771 c -0.2275,-0.4993 -0.20258,-0.7633 0.11483,-1.21646 0.40397,-0.57675 0.40638,-0.57689 0.69314,-0.0411 0.19435,0.36315 0.20398,0.75801 0.0297,1.21646 -0.32039,0.8427 -0.46909,0.84999 -0.83765,0.0411 z m -33.11926,-2.42016 c -0.47615,-0.65396 -0.47192,-0.67173 0.46387,-1.94652 1.34619,-1.83387 4.0011,-4.22319 5.98614,-5.38728 4.06409,-2.38333 9.53668,-3.19553 14.02304,-2.0812 4.53465,1.12633 9.11385,4.10455 11.55425,7.51467 l 0.85509,1.19487 -0.54691,0.69529 -0.54691,0.69528 -1.36204,-1.22459 c -2.7439,-2.46701 -6.00081,-4.22356 -9.35637,-5.04619 -2.91645,-0.71498 -7.58325,-0.59095 -10.48452,0.27865 -3.58747,1.07527 -7.01525,3.0351 -9.03013,5.16295 -0.42741,0.45138 -0.84412,0.81694 -0.92604,0.81237 -0.0819,-0.005 -0.36517,-0.30531 -0.62947,-0.6683 z m 31.1722,-4.99644 c -2.17864,-2.28039 -5.06875,-4.10213 -8.2332,-5.18967 -2.49746,-0.85832 -2.78676,-0.8989 -6.45117,-0.90493 -4.32469,-0.007 -5.98817,0.32568 -9.19272,1.83908 -2.30315,1.0877 -3.72576,2.04353 -5.7924,3.89185 -0.85324,0.76311 -1.25624,1.03457 -0.89555,0.60324 2.33712,-2.79485 4.09567,-4.25773 6.75462,-5.61893 8.62125,-4.41349 19.30351,-1.71154 25.03041,6.33114 0.76499,1.07433 0.57152,0.9234 -1.21999,-0.95178 z"
       id="path302"
       sodipodi:nodetypes="cccccccccsssssssssssssssssssssssssssssssscsssssccsscsssscsscsccsssssssssssssssssscsssscsssscccssssscccssscsssssssssssssssssssssccccsssssssssssscssccssscscssscssssssssssssssssssssssssssssssssssssssssssssssssssscssscsssssccssssscssccccccssssssssssssscsssssssssssssssssssssssssccsssccccsssccccccccccsssscsssccssssssssssssssssssssscccsssscccccccccscssssccccsssccssssssscsssscccccssscccssssscccsssssssssssssssssssssssssscsssscsscsscscccsccsscccssssscsssssssscccssssssssssssssssssscsssccscsccscsssscsssssscccscssssscssscscccscssssssssssssscssscccsscssssscsssccsssccscssssccsccsscscccsssccssssssssssssssssscccsssscssscssssss" /><text
       xml:space="preserve"
       transform="matrix(0.26458333,0,0,0.26458333,-6.2309418,1.3793622)"
       id="text991"
       style="font-style:normal;font-variant:normal;font-weight:normal;font-stretch:normal;font-size:32px;line-height:1;font-family:Arial;-inkscape-font-specification:Arial;text-align:center;white-space:pre;shape-inside:url(#rect993);fill:#800000;stroke:#000000;stroke-width:0.755906"
       inkscape:export-filename="globnuz.png"
       inkscape:export-xdpi="96"
       inkscape:export-ydpi="96"><tspan
         x="323.56543"
         y="256.81828"
         id="tspan5189"><tspan
           style="font-family:Futura;-inkscape-font-specification:Futura;fill:#ffffff;stroke:none"
           id="tspan5187">GLOBNUZ</tspan></tspan></text><path
       style="fill:#000000;stroke-width:0.264583"
       d="m 33.839753,150.90648 c -6.86417,-0.61964 -13.01229,-4.79698 -16.237444,-11.03252 -1.57971,-3.05423 -2.165543,-5.25372 -2.335948,-8.77025 -0.23523,-4.85429 0.723353,-8.52187 3.246157,-12.41995 2.693105,-4.16122 6.468645,-6.99334 11.490785,-8.61952 1.99499,-0.64598 2.66726,-0.73063 5.95312,-0.74961 4.388484,-0.0253 6.707504,0.50982 9.993004,2.30609 6.91206,3.77902 11.02129,10.67345 11.03678,18.51742 0.0246,12.43515 -10.53197,21.90708 -23.146454,20.76834 z m 6.482384,-1.66336 c 3.5702,-0.75101 7.2193,-2.83458 9.7989,-5.59501 2.13682,-2.28659 2.28147,-2.62973 0.38748,-0.91916 -5.65076,5.10351 -13.32905,6.94901 -20.415324,4.90688 -3.1823,-0.91708 -6.87109,-3.18403 -9.15187,-5.62432 -0.69123,-0.73956 -1.25677,-1.24058 -1.25677,-1.11337 0,0.12721 0.8987,1.18663 1.99712,2.35425 3.97358,4.22394 8.6895,6.34177 14.19131,6.37306 1.409314,0.008 3.411434,-0.16404 4.449154,-0.38233 z m -0.26467,-2.55917 c 4.49125,-0.83289 9.29471,-3.9723 11.93144,-7.79805 l 0.75593,-1.09683 -0.55032,-0.69962 -0.55032,-0.69962 -1.2293,1.14597 c -2.484,2.31563 -5.86233,4.17643 -9.29909,5.122 -2.3827,0.65556 -7.931554,0.65724 -10.303454,0.003 -3.48651,-0.96151 -6.47639,-2.63466 -8.9089,-4.98547 l -1.35298,-1.30752 -0.55943,0.7112 c -0.64671,0.82217 -0.58924,0.99027 0.99833,2.91996 4.54057,5.51907 11.74151,8.04358 19.068094,6.68487 z m -0.51312,-5.0922 c 3.58773,-0.64008 6.87184,-2.26798 9.69146,-4.80395 l 1.53729,-1.38265 -0.77711,-0.82007 c -0.4274,-0.45104 -0.88183,-0.82007 -1.00984,-0.82007 -0.128,0 -0.6128,0.2899 -1.07733,0.64421 -0.46453,0.35431 -1.73651,1.06679 -2.82662,1.58329 -6.69913,3.17408 -14.901504,2.60212 -20.790674,-1.44973 l -1.22467,-0.8426 -0.82027,0.82026 -0.82026,0.82027 0.78276,0.82658 c 1.18859,1.25513 3.84075,3.07412 5.73351,3.93234 3.79529,1.72087 7.58652,2.20846 11.601754,1.49212 z m 2.35649,-5.70659 c 1.78774,-0.60913 4.102,-1.72768 5.40057,-2.61023 l 0.76164,-0.51765 -1.4231,-0.94361 -1.4231,-0.94361 -2.24896,0.77312 c -3.05598,1.05055 -6.33957,1.43277 -9.259154,1.07778 -2.39892,-0.29168 -4.65675,-0.87044 -5.90488,-1.51363 -0.68851,-0.35481 -0.83111,-0.33261 -1.90455,0.29647 -1.3779,0.8075 -1.59984,1.10311 -1.19472,1.59126 0.52709,0.6351 4.55871,2.49112 6.62182,3.04846 2.73011,0.73752 8.031794,0.60799 10.574434,-0.25836 z m -22.692864,-0.14554 c 0.24909,-0.54669 0.22829,-0.74879 -0.11213,-1.0892 -0.38091,-0.38091 -0.44252,-0.3721 -0.694799,0.0993 -0.29991,0.56039 -0.126495,1.66115 0.261699,1.66115 0.13167,0 0.37703,-0.30206 0.54523,-0.67123 z m 34.868364,-0.50382 c -0.002,-0.15409 -0.11699,-0.45875 -0.25502,-0.67704 -0.21995,-0.34783 -0.30698,-0.34087 -0.70433,0.0564 -0.38898,0.38888 -0.40582,0.55759 -0.11859,1.18798 0.32281,0.7085 0.3481,0.71649 0.70838,0.22378 0.20548,-0.28102 0.37179,-0.63701 0.36956,-0.7911 z m -32.804284,-1.86766 0.6214,-0.66146 -0.6214,-0.66146 c -0.34178,-0.3638 -0.70603,-0.66146 -0.80944,-0.66146 -0.10342,0 -0.38307,0.29766 -0.62144,0.66146 -0.40149,0.61274 -0.40149,0.71017 0,1.32292 0.23837,0.3638 0.51802,0.66146 0.62144,0.66146 0.10341,0 0.46766,-0.29766 0.80944,-0.66146 z m 31.034744,-0.008 c 0.45745,-0.62851 0.45745,-0.67779 0,-1.30629 -0.59379,-0.81585 -0.6425,-0.81614 -1.40141,-0.008 l -0.62141,0.66146 0.62141,0.66146 c 0.75891,0.80782 0.80762,0.80753 1.40141,-0.008 z m 2.6236,-1.14513 c -0.10912,-0.29051 -0.17848,-0.28217 -0.36069,0.0434 -0.12407,0.2217 -0.14504,0.61298 -0.0466,0.86951 0.16616,0.433 0.192,0.42989 0.36068,-0.0434 0.0999,-0.2804 0.12091,-0.67168 0.0466,-0.86951 z m -37.267816,0.0925 c -0.179556,-0.46792 -0.194826,-0.46702 -0.37244,0.0219 -0.221684,0.61022 -0.02522,1.0509 0.316277,0.70941 0.133866,-0.13386 0.159139,-0.46296 0.05616,-0.73131 z m 6.700742,-1.41892 1.10691,-0.75039 -1.2061,-0.85014 -1.20609,-0.85013 -0.76071,0.7288 c -0.41838,0.40084 -0.7607,0.80935 -0.7607,0.9078 0,0.22622 1.33934,1.57573 1.55743,1.56927 0.0893,-0.003 0.66047,-0.34249 1.26926,-0.75521 z m 15.920704,0.1876 c 0.77945,-0.14879 1.79148,-0.4288 2.24896,-0.62225 l 0.83177,-0.35174 -0.79375,-0.30401 c -2.19073,-0.83907 -4.2685,-1.11307 -7.408334,-0.97694 -2.96347,0.12848 -6.21771,0.77845 -6.21771,1.24186 0,0.28707 3.01556,1.07925 5.00541,1.31491 1.90184,0.22524 4.128314,0.11914 6.333654,-0.30183 z m 9.70097,-0.22723 0.76612,-0.79965 -0.805,-0.805 -0.80501,-0.80501 -1.22616,0.74476 c -0.67439,0.40962 -1.225,0.80429 -1.22359,0.87705 0.003,0.14741 2.14407,1.57055 2.37859,1.58092 0.0819,0.004 0.49369,-0.35326 0.91505,-0.79307 z m -30.829614,-0.25869 c 0.25719,-0.48056 -0.0195,-1.5875 -0.39688,-1.5875 -0.297769,0 -0.672144,1.13701 -0.525991,1.5975 0.211074,0.66503 0.563651,0.66121 0.922871,-0.01 z m 34.925004,-0.52916 c 0,-0.0899 -0.16813,-0.39337 -0.37361,-0.6744 -0.36078,-0.49339 -0.38484,-0.4863 -0.70036,0.20618 -0.26432,0.58012 -0.25879,0.79902 0.029,1.14573 0.32644,0.39334 0.38407,0.38982 0.70036,-0.0427 0.18956,-0.25923 0.34465,-0.54488 0.34465,-0.63478 z m -24.719294,-1.57938 c 4.23585,-1.49507 9.261734,-1.49038 13.657944,0.0128 l 2.30011,0.78644 1.36881,-0.84224 1.3688,-0.84223 -0.6262,-0.4919 c -1.0782,-0.84695 -4.78921,-2.57627 -6.44705,-3.00431 -5.169414,-1.3347 -10.937574,-0.44982 -15.301664,2.34737 l -1.54334,0.98921 0.61729,0.47982 c 0.54963,0.42721 2.06364,1.31241 2.29212,1.34012 0.048,0.006 1.08896,-0.34294 2.31318,-0.77503 z m -8.00517,-0.22217 0.71204,-0.74321 -0.79207,-0.75886 c -0.43564,-0.41737 -0.8328,-0.708 -0.88257,-0.64585 -0.88859,1.10962 -0.95436,1.38643 -0.50869,2.1409 0.24375,0.41263 0.51429,0.75023 0.60121,0.75023 0.0869,0 0.47846,-0.33444 0.87008,-0.74321 z m 31.128824,-1.09189 c -0.71234,-1.23494 -0.72013,-1.23705 -1.56792,-0.42482 l -0.80735,0.7735 0.72749,0.75934 0.7275,0.75935 0.5795,-0.72676 c 0.4063,-0.50955 0.50815,-0.85044 0.34078,-1.14061 z M 17.68142,127.1204 c -0.2505,-0.40532 -0.639654,0.2596 -0.446514,0.76291 0.124053,0.32328 0.184939,0.31631 0.386715,-0.0442 0.131718,-0.23536 0.158626,-0.55876 0.0598,-0.71866 z m 37.184667,0.36107 c -0.007,-0.62414 -0.0465,-0.66146 -0.2789,-0.26249 -0.14897,0.25582 -0.19785,0.58324 -0.10863,0.72761 0.27357,0.44264 0.39595,0.29576 0.38753,-0.46512 z m -29.625284,-2.36253 c 1.3358,-0.89995 4.81159,-2.1858 7.0834,-2.62047 5.244974,-1.00352 10.856694,0.12119 15.272074,3.06086 l 1.58567,1.05571 0.76706,-0.76705 0.76706,-0.76706 -0.54011,-0.68664 c -1.69249,-2.15165 -6.2549,-4.78064 -9.72161,-5.60187 -2.41241,-0.57148 -6.588494,-0.57075 -8.995844,0.002 -2.75349,0.65461 -5.79997,2.24531 -8.16019,4.2608 l -2.07478,1.77174 0.86779,0.89533 c 0.9674,0.99811 0.69588,1.05009 3.14948,-0.60293 z m -5.83767,-0.21716 c 0,-0.14552 -0.17105,-0.49056 -0.38012,-0.76676 -0.36473,-0.48186 -0.39116,-0.47313 -0.653079,0.21576 -0.190394,0.50077 -0.186563,0.87938 0.01265,1.25163 0.275139,0.51412 0.299099,0.51591 0.653079,0.0488 0.2021,-0.26667 0.36746,-0.60393 0.36746,-0.74945 z m 34.419254,0.51185 c 0.1743,-0.45845 0.16467,-0.85332 -0.0297,-1.21646 -0.28676,-0.53582 -0.28917,-0.53567 -0.69314,0.0411 -0.31741,0.45315 -0.34233,0.71716 -0.11483,1.21646 0.36856,0.80891 0.51726,0.80161 0.83765,-0.0411 z m -32.401404,-2.52315 c 2.01488,-2.12786 5.44266,-4.08768 9.03013,-5.16296 2.90127,-0.86959 7.568074,-0.99362 10.484524,-0.27864 3.35556,0.82263 6.61247,2.57918 9.35637,5.04618 l 1.36204,1.2246 0.54691,-0.69529 0.54691,-0.69528 -0.85509,-1.19488 c -2.4404,-3.41011 -7.0196,-6.38834 -11.55425,-7.51466 -4.486364,-1.11433 -9.958954,-0.30213 -14.023044,2.08119 -1.98504,1.1641 -4.63995,3.55341 -5.98614,5.38729 -0.93579,1.27479 -0.94002,1.29255 -0.46387,1.94652 0.2643,0.36299 0.54756,0.66372 0.62947,0.6683 0.0819,0.005 0.49863,-0.361 0.92604,-0.81237 z m 30.836684,-3.90059 c -5.7269,-8.04269 -16.409164,-10.74463 -25.030414,-6.33114 -2.65895,1.3612 -4.4175,2.82408 -6.75462,5.61893 -0.36069,0.43132 0.0423,0.15987 0.89555,-0.60324 2.06664,-1.84832 3.48925,-2.80415 5.7924,-3.89185 3.20455,-1.5134 4.86803,-1.84619 9.192724,-1.83908 3.66441,0.006 3.95371,0.0466 6.45117,0.90493 3.16445,1.08754 6.05456,2.90928 8.2332,5.18967 1.79151,1.87517 1.98498,2.02611 1.21999,0.95178 z"
       id="path3232"
       sodipodi:nodetypes="ssssssscsssssssssscscccsscscssccsscssssscccssssscccssssssssssssssssssssscsssssscsscsccssscsssssssscccsscssscsssssscccscssssssscsscsccsscccssscscsscssssssscccsssssssccsccsscccsscscsccssssssssssssssssscccssssscsssssscsss"
       inkscape:export-filename="icon.png"
       inkscape:export-xdpi="96"
       inkscape:export-ydpi="96" /><g
       id="g5031"
       transform="translate(59.230957,-4.8579211)"><circle
         style="fill:none;stroke:#ffffff;stroke-width:1.2;stroke-dasharray:none;stroke-opacity:1"
         id="path3252"
         cx="40.104874"
         cy="39.207664"
         r="20.904774" /><ellipse
         style="fill:none;stroke:#ffffff;stroke-width:0.973107;stroke-dasharray:none;stroke-opacity:1"
         id="circle3462"
         cx="40.243458"
         cy="41.864777"
         rx="20.47007"
         ry="12.350504" /><ellipse
         style="fill:none;stroke:#ffffff;stroke-width:0.967652;stroke-dasharray:none;stroke-opacity:1"
         id="ellipse3464"
         cx="39.982536"
         cy="37.147144"
         rx="20.355335"
         ry="12.281281" /><ellipse
         style="fill:none;stroke:#ffffff;stroke-width:0.89403;stroke-dasharray:none;stroke-opacity:1"
         id="ellipse3468"
         cx="40.428783"
         cy="46.250374"
         rx="18.806635"
         ry="11.34688" /><ellipse
         style="fill:none;stroke:#ffffff;stroke-width:0.893896;stroke-dasharray:none;stroke-opacity:1"
         id="ellipse3470"
         cx="39.889103"
         cy="31.657871"
         rx="18.803825"
         ry="11.345186" /></g></g></svg>
